<?xml version="1.0" standalone="no"?>
<!DOCTYPE svg PUBLIC "-//W3C//DTD SVG 20010904//EN"
 "http://www.w3.org/TR/2001/REC-SVG-20010904/DTD/svg10.dtd">
<svg version="1.0" xmlns="http://www.w3.org/2000/svg"
 width="750.000000pt" height="750.000000pt" viewBox="0 0 750.000000 750.000000"
 preserveAspectRatio="xMidYMid meet">
<metadata>
Created by potrace 1.11, written by Peter Selinger 2001-2013
</metadata>
<g transform="translate(0.000000,750.000000) scale(0.100000,-0.100000)"
fill="#000000" stroke="none">
<path d="M2902 7416 c-55 -115 -82 -206 -87 -291 l-4 -70 9 67 c4 38 18 98 30
135 26 79 90 223 99 223 25 0 250 -437 300 -583 l40 -117 -28 14 c-47 25 -271
112 -363 142 l-87 28 -4 45 -3 46 -2 -46 -2 -46 -97 29 c-130 39 -301 78 -338
77 -16 0 6 -7 50 -15 182 -33 563 -154 782 -249 186 -82 438 -222 596 -333
147 -102 255 -219 317 -342 35 -70 75 -232 95 -385 15 -123 20 -274 8 -261 -4
3 -6 28 -4 55 2 42 -1 49 -18 54 -13 3 -21 13 -21 26 0 18 -6 21 -45 21 -25 0
-45 -4 -45 -10 0 -5 -9 -10 -19 -10 -11 0 -23 5 -26 10 -3 6 -16 10 -29 10
-25 0 -76 21 -76 33 0 4 -4 7 -10 7 -6 0 -8 -21 -6 -50 4 -47 -4 -64 -19 -39
-4 6 -13 8 -21 5 -8 -3 -11 0 -8 8 3 7 -7 18 -21 26 -14 7 -25 17 -25 21 0 5
-8 13 -18 18 -17 9 -18 3 -14 -80 2 -49 2 -89 -1 -89 -2 0 -16 18 -31 40 -40
61 -68 90 -79 83 -6 -4 -7 -1 -2 6 12 21 -116 141 -220 205 l-30 19 25 -28
c15 -16 -7 -5 -55 30 -154 110 -252 145 -430 152 -93 4 -134 1 -184 -12 -79
-20 -181 -66 -200 -88 -7 -9 -17 -17 -21 -17 -4 0 -16 35 -25 77 -20 91 -138
441 -189 561 -41 99 -124 234 -139 229 -25 -8 -98 -278 -136 -507 -30 -178
-51 -401 -51 -531 0 -106 -1 -111 -17 -98 -72 59 -300 119 -455 119 -119 0
-283 -42 -364 -93 -83 -52 -197 -193 -246 -304 -41 -92 -70 -209 -76 -307 l-7
-99 -44 37 c-25 21 -65 48 -90 60 -40 20 -188 60 -301 81 -97 18 -103 31 -110
245 l-5 165 -8 -125 c-6 -80 -5 -148 2 -189 6 -36 9 -67 7 -69 -3 -2 -49 9
-103 23 -149 41 -203 53 -203 44 0 -4 15 -10 33 -14 17 -4 104 -24 192 -45 88
-22 226 -55 308 -74 81 -20 164 -44 185 -55 60 -31 138 -98 152 -131 7 -16 19
-30 26 -30 18 0 18 -1 -7 72 -19 57 -20 69 -9 143 34 231 163 464 310 557 56
36 170 72 274 88 158 24 438 -33 526 -107 30 -24 30 -26 30 -125 0 -126 12
-166 63 -215 39 -37 40 -37 13 -4 -60 74 -61 79 -64 313 -4 220 11 426 44 623
25 150 72 365 101 459 l27 88 19 -23 c38 -47 106 -198 172 -378 81 -225 124
-381 159 -576 15 -82 34 -184 43 -225 20 -95 23 -266 4 -300 -7 -14 -34 -47
-60 -74 -47 -51 -32 -46 27 8 57 52 67 80 66 186 -1 52 -11 142 -22 200 -11
58 -28 147 -37 199 l-16 93 27 29 c36 37 163 86 258 100 87 12 226 -2 263 -26
14 -10 32 -13 45 -9 13 4 18 2 14 -4 -3 -6 14 -21 39 -33 25 -12 45 -26 45
-31 0 -4 6 -8 14 -8 15 0 29 -27 21 -40 -3 -5 0 -12 6 -16 8 -4 9 -3 5 4 -9
14 -2 15 22 3 9 -5 25 -12 35 -15 10 -3 16 -10 13 -15 -9 -14 4 -41 19 -41 7
0 15 -6 18 -12 2 -7 7 -10 11 -7 4 4 -3 16 -15 28 -27 25 -14 28 19 5 12 -8
20 -20 17 -25 -3 -5 0 -6 8 -3 11 4 19 -8 30 -38 8 -24 22 -63 31 -88 15 -44
15 -47 -8 -92 -13 -26 -27 -44 -31 -40 -5 4 -5 2 -2 -5 11 -17 -25 -92 -73
-152 -33 -41 -45 -50 -52 -40 -7 11 -8 9 -4 -5 5 -13 -13 -41 -63 -100 -62
-72 -223 -235 -193 -195 9 12 10 38 3 99 -9 81 -9 83 25 157 19 41 52 100 74
131 52 72 53 109 2 65 -34 -30 -142 -173 -142 -189 0 -8 -5 -14 -11 -14 -5 0
-8 -4 -5 -9 4 -5 -3 -30 -14 -56 -23 -53 -25 -69 -8 -59 8 5 9 2 4 -12 -17
-41 -18 -91 -2 -128 15 -36 15 -40 0 -58 -17 -17 -16 -18 16 -12 31 7 32 6 21
-15 -10 -17 -9 -22 4 -27 12 -5 15 -25 15 -98 l1 -91 17 39 17 39 24 -51 c13
-28 28 -49 33 -46 5 3 17 -15 29 -40 11 -25 25 -48 31 -52 6 -4 -22 -19 -63
-34 -102 -37 -215 -95 -269 -138 -60 -47 -179 -169 -209 -212 -13 -19 14 5 60
54 125 133 208 195 327 244 122 51 353 112 422 112 60 0 80 -17 119 -99 25
-53 26 -64 25 -211 0 -123 -4 -163 -17 -195 -14 -32 -17 -34 -14 -12 3 15 1
27 -4 27 -4 0 -11 21 -14 48 -10 77 -28 153 -37 158 -11 7 -11 6 8 -57 16 -54
15 -183 -1 -236 -10 -33 11 -29 29 5 20 35 20 25 1 -28 -33 -92 -186 -250
-248 -256 -18 -1 -79 -12 -137 -24 -181 -38 -456 -37 -580 2 -19 6 -64 30
-100 52 -81 52 -104 64 -65 34 17 -12 46 -38 66 -58 20 -19 45 -42 55 -51 11
-9 51 -54 91 -101 77 -92 146 -147 193 -153 36 -5 80 -27 101 -51 20 -23 59
-99 59 -115 0 -16 -405 -4 -548 16 -263 37 -555 115 -698 186 -103 52 -199
124 -290 219 -118 122 -170 194 -298 416 l-47 81 -84 12 c-63 9 -101 9 -157 0
-116 -18 -267 -7 -370 28 l-88 29 49 -46 c77 -72 191 -265 220 -375 52 -197
27 -420 -57 -508 -68 -72 -201 -106 -288 -72 -54 21 -142 104 -169 160 -10 22
-22 69 -25 105 l-7 65 -2 -63 c-1 -49 4 -73 25 -114 53 -104 174 -188 272
-188 47 0 167 57 204 96 84 89 109 291 62 493 -18 82 -86 223 -158 331 -33 49
-48 79 -38 75 97 -39 151 -43 429 -34 85 3 126 0 134 -8 6 -6 17 -9 24 -7 7 3
16 1 20 -5 4 -7 0 -8 -11 -4 -9 3 -15 2 -12 -3 2 -5 23 -47 45 -94 47 -96 73
-207 73 -307 0 -65 -2 -73 -51 -148 -28 -44 -61 -101 -75 -127 -31 -61 -84
-206 -84 -232 0 -10 -3 -16 -6 -13 -10 10 -11 50 -2 69 4 9 3 27 -2 40 l-10
23 2 -25 c0 -14 -2 -32 -5 -40 -4 -8 -8 -35 -10 -60 -2 -25 -9 -57 -16 -71
-12 -25 -19 -27 -104 -33 -110 -8 -212 -27 -334 -62 l-92 -26 -45 31 c-64 45
-174 158 -198 205 -12 23 -24 63 -28 91 -6 43 -8 45 -9 14 -2 -69 27 -128 108
-212 42 -44 93 -93 114 -108 l38 -28 -113 -35 c-62 -19 -155 -45 -206 -58 -50
-12 -92 -26 -92 -31 0 -4 8 -6 18 -3 9 3 48 12 86 21 38 8 135 36 215 61 337
107 383 117 533 118 75 1 139 -2 142 -5 3 -3 13 -43 21 -90 9 -46 38 -171 66
-278 54 -213 55 -221 35 -221 -20 0 -328 -89 -340 -99 -16 -12 -295 -43 -401
-45 -51 0 -88 -4 -81 -8 15 -10 -98 -9 -154 2 -32 6 -20 7 44 3 68 -4 87 -3
81 7 -5 9 11 11 69 8 42 -2 76 0 76 3 0 3 39 9 87 13 115 9 238 31 343 63 82
24 180 71 180 85 0 14 -121 -5 -277 -44 -89 -22 -168 -36 -174 -32 -7 4 -9 3
-6 -3 4 -7 -33 -17 -99 -27 -140 -22 -236 -29 -209 -17 l20 10 -20 1 c-14 2
-11 5 10 10 27 7 27 8 5 8 -14 0 -38 -4 -55 -8 -28 -7 -29 -8 -5 -10 14 -1 19
-4 12 -7 -6 -2 -10 -9 -6 -14 3 -5 -11 -9 -31 -9 -22 0 -34 4 -30 10 3 6 0 10
-7 10 -7 1 -2 7 11 14 15 8 20 16 12 20 -6 4 -11 17 -11 28 0 29 -37 59 -65
52 -15 -4 -22 -1 -22 10 0 9 4 16 9 16 4 0 8 -4 8 -10 0 -15 338 -5 470 14
219 32 471 88 456 103 -4 4 -201 -17 -296 -32 -14 -2 -123 -13 -242 -25 -120
-11 -249 -26 -288 -34 -78 -14 -120 -11 -120 10 0 9 -12 14 -35 14 -32 0 -35
-2 -35 -29 0 -23 5 -31 23 -34 l22 -4 -22 -2 c-22 -1 -23 -6 -23 -70 0 -46 4
-71 13 -74 10 -4 10 -6 0 -6 -7 -1 -13 -7 -13 -15 0 -10 39 -20 143 -36 387
-60 736 -151 1147 -298 256 -92 359 -139 482 -218 68 -44 84 -64 49 -64 -10 0
-37 -7 -60 -15 -23 -8 -88 -20 -144 -26 l-103 -12 -104 41 c-198 77 -305 110
-491 151 -102 23 -217 52 -255 65 -38 13 -98 29 -134 35 -36 7 -83 18 -105 26
-22 8 -69 21 -104 30 -64 16 -143 61 -209 118 -26 22 -42 27 -70 25 -29 -2
-37 -7 -37 -23 0 -14 9 -21 30 -26 l30 -5 -32 -8 c-22 -5 -33 -14 -33 -25 0
-17 28 -24 94 -22 27 0 71 -25 94 -54 17 -22 39 -30 95 -34 5 -1 6 -5 3 -9 -2
-4 3 -8 12 -8 9 -1 52 -8 95 -18 42 -9 123 -21 180 -27 107 -11 369 -63 522
-103 50 -14 155 -48 234 -78 l145 -53 -65 -6 c-123 -12 -410 -9 -552 6 -229
25 -577 100 -784 168 -55 18 -73 21 -73 11 0 -37 501 -157 838 -200 290 -37
919 -1 976 57 20 19 36 9 36 -24 0 -18 9 -49 19 -68 l20 -36 -24 -35 c-21 -31
-32 -37 -102 -51 -104 -23 -185 -31 -158 -17 15 8 9 9 -28 5 -26 -2 -60 -11
-76 -20 -68 -34 -446 -46 -696 -20 -310 31 -591 74 -739 111 -59 15 -89 12
-44 -5 108 -41 579 -109 958 -137 61 -5 86 -10 70 -14 -24 -6 -24 -7 7 -14 18
-4 36 -12 39 -18 4 -7 -21 -8 -77 -4 -46 3 -136 8 -199 11 -231 12 -490 50
-700 104 -105 27 -133 31 -117 15 19 -19 381 -96 537 -113 310 -36 766 -43
950 -15 58 9 119 17 135 18 17 1 56 12 89 24 32 13 61 21 63 18 3 -2 -30 -21
-72 -41 -42 -20 -79 -34 -83 -30 -3 3 0 11 8 16 13 9 13 10 0 5 -51 -17 -142
-39 -255 -61 -109 -22 -443 -19 -660 5 -206 23 -339 47 -544 96 -149 35 -182
40 -165 25 5 -5 95 -29 199 -54 259 -63 530 -97 835 -104 l235 -6 -90 -14
c-64 -10 -139 -13 -260 -9 -295 10 -554 49 -800 120 -115 33 -140 36 -119 17
22 -22 428 -121 493 -121 12 0 20 -4 17 -9 -4 -5 2 -7 12 -4 10 2 61 0 113 -6
52 -6 168 -13 259 -17 121 -5 159 -10 142 -17 -31 -14 -28 -22 16 -35 53 -16
-210 -7 -371 14 -138 17 -406 70 -574 112 l-113 29 0 -362 0 -361 31 -42 c90
-123 90 -271 -2 -384 -38 -48 -33 -62 6 -16 94 111 101 278 15 398 l-20 28
208 92 c220 98 386 157 517 185 95 21 288 22 385 3 69 -14 67 -12 57 -72 -1
-4 42 -31 97 -59 l98 -50 -5 -34 c-3 -18 -30 -88 -61 -156 -58 -129 -94 -232
-127 -360 -11 -43 -29 -100 -39 -128 l-20 -50 97 3 97 3 14 80 c24 145 61 318
91 432 16 62 35 147 41 189 5 43 13 80 15 83 7 7 55 -31 78 -61 l20 -26 -52
-149 c-48 -140 -161 -520 -161 -543 0 -6 35 -10 93 -10 l92 1 45 134 c25 75
46 132 48 127 1 -4 -16 -61 -38 -127 -22 -65 -40 -123 -40 -127 0 -4 16 -8 35
-8 39 0 41 5 71 158 9 45 18 81 20 80 1 -2 9 -54 17 -116 15 -108 21 -132 32
-120 3 2 -5 68 -16 145 l-21 141 26 158 c34 210 42 292 61 589 16 268 22 305
56 341 21 22 21 27 9 64 -12 37 -12 40 10 58 20 16 21 21 9 39 -11 18 -10 25
4 47 22 33 21 49 -3 71 -15 14 -20 31 -20 74 l0 56 -88 56 c-107 70 -155 93
-307 154 -125 51 -165 76 -165 107 0 10 -4 18 -9 18 -11 0 -51 97 -51 124 0
12 -4 26 -9 31 -5 6 -23 57 -41 115 -17 58 -40 133 -50 166 -27 89 -107 417
-120 496 -23 132 13 296 100 452 48 87 72 118 185 243 l40 44 61 -74 c103
-123 261 -236 430 -305 71 -30 114 -58 114 -76 0 -6 14 -25 32 -43 37 -38 43
-88 13 -109 -10 -8 -15 -14 -9 -14 5 0 2 -5 -6 -10 -11 -7 -11 -10 -2 -10 7 0
11 -4 7 -10 -3 -5 -13 -7 -23 -4 -16 5 -16 5 0 -6 10 -6 18 -16 18 -22 0 -9
-3 -9 -12 0 -7 7 -18 12 -26 12 -8 0 -21 8 -28 18 -23 29 -16 -5 12 -60 16
-32 23 -59 20 -74 -3 -12 -2 -25 4 -29 5 -3 7 -11 4 -19 -6 -16 17 -130 62
-311 36 -140 45 -168 57 -166 21 3 28 0 22 -9 -3 -5 -2 -10 4 -10 5 0 14 7 19
15 7 14 11 12 28 -7 16 -19 16 -20 1 -9 -13 11 -21 11 -29 3 -19 -19 -17 -40
4 -45 13 -4 17 -10 12 -18 -5 -9 -1 -11 14 -7 12 4 25 2 28 -3 3 -5 -21 -9
-53 -9 -110 0 -225 -20 -275 -47 -41 -22 -94 -66 -63 -52 6 3 33 16 60 29 70
33 223 48 314 31 36 -7 74 -12 83 -12 11 0 15 -6 11 -17 -5 -14 -3 -15 8 -5 7
7 17 13 23 13 5 0 -1 -9 -13 -19 l-22 -19 31 -10 c16 -6 30 -8 30 -4 0 4 4 1
9 -6 4 -7 18 -14 29 -15 12 -1 22 -6 22 -11 0 -5 3 -6 7 -3 3 4 16 -1 27 -10
12 -10 5 -1 -13 20 -19 20 -39 37 -43 37 -5 0 -19 9 -31 21 l-22 21 40 -17
c22 -9 42 -20 43 -26 2 -5 8 -7 13 -4 12 8 60 -25 53 -36 -5 -9 24 -40 58 -59
14 -8 16 -7 12 5 -3 8 -11 12 -17 8 -6 -4 -7 -1 -2 7 6 9 4 11 -5 5 -9 -5 -11
-4 -6 4 8 12 58 -23 134 -93 56 -52 167 -206 211 -294 48 -96 180 -472 165
-472 -2 0 -13 15 -24 32 -16 27 -20 29 -20 12 0 -11 15 -45 34 -76 40 -68 155
-403 162 -473 5 -48 4 -46 -24 35 -67 192 -153 383 -165 364 -7 -12 12 -108
58 -284 18 -74 45 -199 59 -276 29 -160 69 -481 62 -498 -2 -6 -5 0 -5 14 -2
39 -12 70 -22 64 -6 -3 -8 22 -5 60 3 42 1 68 -6 72 -7 4 -8 2 -4 -4 4 -7 2
-12 -3 -12 -6 0 -11 -12 -11 -27 0 -22 -2 -25 -10 -13 -5 8 -7 30 -4 48 4 17
3 48 0 68 -6 29 -10 33 -21 24 -8 -7 -12 -17 -8 -23 3 -6 1 -7 -6 -3 -6 4 -9
16 -6 26 3 10 1 22 -6 26 -8 5 -10 -2 -5 -27 3 -19 8 -45 11 -59 2 -14 9 -114
16 -223 l12 -198 172 1 172 2 -14 51 c-7 28 -11 52 -10 54 2 1 30 -22 63 -52
l59 -55 68 0 69 0 -4 28 c-3 15 -8 34 -12 42 -5 13 9 19 76 33 195 39 326 50
593 48 295 -1 393 -14 410 -54 7 -15 17 -21 33 -19 16 2 22 -2 22 -16 0 -11 7
-25 15 -32 12 -10 15 -10 15 3 0 8 -5 18 -10 20 -6 3 -5 4 2 3 7 -2 13 -15 13
-29 -1 -26 2 -27 47 -27 29 0 48 4 48 11 0 8 4 8 13 2 6 -6 73 -11 147 -11
l135 -2 -35 18 c-20 10 -57 24 -83 31 -26 8 -46 15 -44 18 5 4 113 -21 197
-47 56 -17 93 -20 268 -20 196 0 203 1 197 19 -6 19 2 20 197 23 112 2 204 2
206 2 2 -1 -12 -11 -30 -23 l-33 -21 585 1 585 1 -70 19 c-38 11 -99 28 -135
39 -36 10 -121 35 -190 55 -159 46 -503 159 -597 196 -40 16 -148 67 -242 114
-93 47 -181 89 -195 95 -14 5 -26 16 -26 24 0 15 9 18 135 50 146 36 603 105
665 100 19 -1 101 -6 181 -10 130 -6 146 -5 152 10 4 9 17 16 32 16 14 0 24 5
23 12 -2 7 7 14 20 16 17 3 22 -1 22 -17 0 -12 5 -21 10 -21 6 0 10 8 10 17 0
15 1 15 13 1 6 -8 21 -18 31 -22 16 -5 17 -4 7 8 -10 12 -9 14 6 12 10 -2 17
-10 15 -19 -3 -16 24 -17 48 -2 6 3 10 2 10 -2 0 -5 44 -8 98 -8 53 0 115 -4
137 -8 28 -5 36 -5 25 2 -13 10 -13 11 0 12 10 0 8 3 -5 9 -18 8 -17 9 8 9 16
1 26 -3 22 -9 -4 -6 13 -10 44 -10 l51 0 0 120 0 120 -66 0 -67 0 39 26 c118
79 120 124 17 309 -197 353 -367 550 -643 742 -89 61 -292 187 -322 198 -10 4
-18 15 -18 24 0 24 30 111 38 111 4 -1 36 -7 72 -15 l65 -14 40 28 c81 57 232
288 290 444 10 26 20 45 23 43 6 -7 -46 -140 -91 -231 -46 -92 -98 -177 -136
-220 -24 -27 -144 -140 -186 -174 -15 -12 -15 -15 5 -36 27 -29 118 -77 189
-100 107 -35 205 -1 376 128 161 121 277 245 320 342 53 119 56 158 53 595
l-3 405 -44 77 c-86 150 -238 301 -370 368 -79 40 -231 90 -318 105 -48 8 -87
16 -89 18 -1 1 23 40 53 87 68 106 113 193 113 220 0 43 -60 19 -254 -100
l-112 -69 -89 0 c-50 0 -103 -4 -120 -10 -21 -6 2 -7 73 -3 l104 5 -31 -50
c-22 -35 -31 -63 -31 -93 0 -60 -24 -102 -108 -192 -40 -44 -80 -94 -87 -111
-7 -18 -26 -43 -40 -57 -15 -14 -43 -50 -63 -80 -19 -30 -46 -67 -60 -82 l-25
-27 -28 21 c-16 12 -36 19 -48 15 -19 -5 -21 -1 -21 35 0 23 -4 37 -10 33 -5
-3 -10 -21 -10 -38 l0 -32 -20 25 c-11 14 -20 35 -20 47 0 12 -12 30 -27 41
-22 16 -27 28 -31 79 -6 79 20 167 58 203 16 15 51 33 77 40 37 11 62 29 113
80 37 38 86 76 114 89 27 12 45 26 40 30 -5 4 -49 16 -99 26 -232 47 -501 128
-725 220 -85 35 -204 83 -265 107 l-110 43 3 80 c9 211 -99 434 -279 579 -46
36 -85 64 -87 61 -3 -2 26 -35 64 -72 122 -119 174 -216 174 -321 0 -69 -24
-124 -74 -172 -32 -30 -43 -34 -99 -37 -34 -1 -80 -8 -102 -16 -37 -13 -44
-13 -82 5 -24 11 -62 37 -86 58 l-43 38 -23 132 c-34 197 -94 438 -124 495 -6
12 -6 20 0 22 18 6 -4 297 -33 440 -42 207 -101 319 -241 456 -115 112 -268
214 -530 353 l-112 59 -27 80 c-15 44 -40 114 -56 155 -37 95 -211 416 -253
466 l-31 37 -42 -87z m378 -1511 c60 -32 39 -32 -24 0 -27 14 -43 25 -35 25 8
-1 34 -12 59 -25z m35 -53 c-3 -3 -11 0 -18 7 -9 10 -8 11 6 5 10 -3 15 -9 12
-12z m231 -124 l29 -33 -32 29 c-31 28 -38 36 -30 36 2 0 16 -15 33 -32z m490
-133 l29 -15 -32 0 c-23 0 -33 5 -33 15 0 18 1 18 36 0z m145 -101 c-26 -19
-205 -232 -264 -316 -23 -32 -43 -58 -46 -58 -4 0 -6 11 -6 24 0 13 3 22 8 19
11 -7 8 12 -5 25 -9 9 -8 18 1 39 11 23 15 25 20 11 5 -15 8 -15 26 -1 16 13
17 15 3 10 -22 -8 -24 8 -3 17 8 3 16 13 16 23 1 10 5 5 10 -12 7 -27 8 -25 5
11 -5 51 4 66 38 70 15 1 24 -1 21 -6 -8 -14 24 -5 38 10 10 12 9 12 -5 1 -14
-10 -18 -9 -27 7 -9 17 -7 19 14 16 14 -1 23 2 19 7 -3 5 -9 7 -13 5 -4 -3 -8
0 -8 7 0 7 8 13 18 13 10 0 15 -4 13 -8 -9 -14 7 -8 24 8 18 18 28 59 12 49
-18 -11 -11 1 12 21 19 15 20 16 9 2 -14 -19 -5 -23 23 -12 9 3 13 10 10 15
-3 5 1 6 9 3 9 -3 17 3 20 18 5 18 9 20 19 10 10 -10 8 -15 -11 -28z m-431 22
c0 -2 -8 -10 -17 -17 -16 -13 -17 -12 -4 4 13 16 21 21 21 13z m-182 -232 c12
-56 24 -137 28 -180 l7 -79 -38 70 c-20 39 -54 92 -74 119 l-37 49 41 73 c22
39 43 66 46 60 4 -6 16 -57 27 -112z m537 85 c-26 -49 -12 -54 27 -10 21 22
39 37 41 33 3 -4 8 -29 12 -57 4 -27 13 -63 20 -80 12 -25 31 -139 34 -195 6
-104 11 -153 25 -255 10 -71 17 -201 19 -313 l2 -192 17 47 c9 27 17 40 17 30
1 -18 -80 -273 -106 -336 -7 -18 -11 -36 -8 -39 7 -7 3 -11 68 91 31 48 61 87
66 87 16 0 23 -58 16 -119 -8 -63 -53 -211 -90 -296 -14 -30 -25 -63 -25 -73
0 -10 -7 -28 -16 -41 -16 -22 -16 -22 -38 -3 -33 30 -76 55 -76 45 0 -6 17
-27 37 -48 l37 -38 -30 -23 c-16 -13 -34 -24 -41 -24 -6 0 -18 -9 -26 -20 -14
-20 -15 -20 -55 10 -23 16 -45 30 -48 30 -12 0 30 -42 59 -60 l27 -17 -24 -11
c-22 -10 -28 -8 -50 19 -28 33 -50 101 -43 130 3 11 1 19 -3 19 -5 0 -11 -17
-15 -39 -8 -46 11 -95 48 -130 l26 -23 -28 -30 -28 -30 -41 21 c-22 11 -50 32
-61 47 -12 15 -21 22 -21 15 0 -19 69 -89 95 -95 22 -6 24 -10 19 -34 -4 -15
-8 -29 -10 -30 -9 -11 -91 14 -111 34 -17 17 -23 19 -23 8 0 -19 42 -58 80
-74 28 -12 30 -16 30 -64 0 -29 7 -76 15 -104 9 -29 13 -57 9 -63 -3 -6 3 -20
13 -32 11 -12 31 -42 45 -67 27 -47 84 -104 209 -206 41 -34 113 -100 161
-147 86 -85 193 -166 204 -154 3 3 -7 12 -23 20 -16 9 -69 57 -119 109 -49 51
-125 127 -169 168 l-80 75 57 3 c74 4 122 -9 126 -34 7 -34 19 -37 61 -17 22
11 38 15 34 10 -16 -27 60 39 121 104 93 98 154 193 197 307 l9 22 24 -21 c14
-12 23 -26 20 -31 -3 -5 13 -38 36 -74 54 -83 60 -125 27 -220 -17 -50 -20
-71 -11 -71 6 0 10 6 7 14 -3 7 0 13 6 13 16 0 14 -26 -4 -43 -8 -8 -11 -17
-8 -21 4 -3 1 -6 -5 -6 -7 0 -11 -3 -10 -7 6 -24 -50 -97 -162 -212 -70 -72
-124 -131 -119 -131 14 0 111 61 153 97 21 18 42 30 46 28 11 -7 98 72 133
120 39 53 28 18 -29 -94 -26 -50 -60 -99 -82 -118 -57 -50 -23 -39 50 16 112
85 159 164 173 287 6 48 11 62 29 70 11 5 23 18 25 29 2 11 9 24 17 28 8 4 14
20 14 34 0 15 3 23 7 20 3 -4 11 -3 17 2 7 6 36 -13 84 -55 40 -35 68 -64 61
-64 -6 0 2 -12 17 -28 38 -36 78 -84 87 -102 4 -8 14 -26 22 -40 13 -23 13
-25 -7 -28 -11 -2 -24 2 -28 8 -5 9 -9 9 -14 1 -4 -6 -15 -11 -25 -11 -30 0
-47 -28 -33 -51 7 -11 8 -19 2 -19 -5 0 -10 -10 -10 -22 0 -20 1 -20 18 -5 10
10 23 17 29 17 10 0 23 -22 22 -36 0 -4 3 -10 8 -13 13 -10 36 -54 24 -46 -6
3 -11 1 -11 -5 0 -6 -4 -9 -9 -6 -5 4 -8 -9 -7 -29 2 -19 -2 -36 -8 -39 -6 -2
-4 -5 4 -5 9 -1 23 11 32 27 9 15 27 36 39 47 14 13 9 2 -13 -30 -20 -27 -43
-64 -52 -82 -15 -30 -17 -31 -51 -20 -26 8 -32 13 -24 23 7 8 6 14 -3 18 -7 3
-3 4 10 2 12 -2 22 0 22 6 0 5 -10 8 -22 6 -13 -2 -23 -8 -23 -15 0 -23 -14
-24 -82 -10 -242 54 -323 67 -423 67 -127 -1 -225 -12 -271 -33 -19 -8 -55
-22 -81 -32 -27 -9 -48 -21 -48 -26 0 -12 5 -11 68 5 32 9 50 10 46 4 -5 -7 2
-8 22 -3 82 22 118 27 224 34 188 11 320 -11 510 -86 75 -29 87 -38 69 -48 -7
-5 -10 -4 -5 3 7 11 -46 27 -76 23 -10 -1 -18 2 -18 7 0 5 -9 12 -20 15 -11 3
-18 1 -15 -3 3 -5 1 -11 -5 -15 -6 -4 -7 -11 -4 -17 4 -7 2 -8 -5 -4 -6 4 -20
5 -30 1 -16 -5 -9 -15 43 -68 79 -79 110 -142 104 -213 -4 -49 -8 -55 -67
-110 -58 -53 -61 -59 -45 -71 14 -10 15 -13 3 -13 -8 0 -20 5 -26 11 -8 8 -16
8 -30 0 -17 -10 -17 -10 4 -11 52 0 65 -20 36 -52 -9 -10 -11 -18 -5 -18 6 0
12 6 14 12 7 20 32 -12 36 -44 3 -23 -1 -28 -17 -28 -23 0 -29 16 -8 23 7 2 8
8 3 13 -5 5 -11 4 -13 -3 -3 -7 -13 -13 -23 -13 -13 0 -19 -9 -22 -33 -3 -30
-1 -33 17 -30 14 3 16 2 7 -4 -6 -5 -40 -8 -75 -7 -49 1 -71 8 -105 30 -26 17
-41 33 -37 41 3 9 0 11 -6 7 -6 -4 -14 -3 -18 2 -10 15 -59 42 -199 109 -150
72 -224 121 -364 242 -53 46 -105 83 -115 83 -46 0 -94 -24 -139 -68 -120
-118 -200 -237 -226 -336 -21 -82 -24 -211 -5 -223 7 -4 21 -21 31 -36 25 -40
31 -26 12 29 -19 56 -22 217 -4 174 6 -14 18 -40 26 -58 43 -97 180 -194 323
-230 118 -29 304 -46 414 -37 50 5 105 9 123 10 38 3 42 -13 10 -42 -32 -29
-59 -41 -118 -54 -63 -13 -116 -38 -85 -40 14 0 11 -3 -10 -10 -19 -5 -31 -5
-36 3 -4 6 -11 8 -16 5 -13 -8 -62 -9 -145 -4 -37 3 -65 1 -62 -4 2 -5 19 -6
37 -3 29 4 30 4 8 -6 -16 -7 -35 -7 -65 2 -48 14 -63 30 -38 40 14 7 14 7 -3
5 -12 -2 -19 -9 -17 -19 2 -14 -2 -15 -35 -6 -59 16 -183 75 -183 88 0 6 -4 9
-9 5 -6 -3 -15 4 -21 15 -11 21 -11 21 17 3 15 -9 31 -21 34 -26 3 -5 8 -8 10
-7 11 6 92 -26 96 -37 3 -7 10 -10 15 -7 6 4 5 10 -3 16 -10 7 -9 8 6 4 37
-10 149 -26 153 -22 2 3 -23 10 -55 16 -127 25 -193 51 -227 89 -10 11 -23 18
-29 14 -6 -3 -7 -1 -3 5 3 6 -2 16 -14 22 -11 6 -31 27 -44 46 -23 35 -24 35
-28 13 -5 -27 17 -78 40 -95 12 -9 12 -13 2 -19 -9 -6 -11 -4 -5 5 5 9 4 11
-3 6 -7 -4 -12 -17 -12 -29 -1 -21 -2 -21 -26 6 -15 18 -23 36 -19 47 3 10 1
21 -5 25 -6 3 -8 10 -5 15 7 12 -17 59 -30 59 -5 1 -10 6 -10 13 0 7 -11 18
-24 24 -13 7 -27 17 -31 24 -4 6 -13 13 -21 14 -8 2 -27 8 -43 15 -16 6 -35
10 -42 7 -8 -3 -11 0 -7 10 4 10 0 12 -11 8 -9 -3 -16 -1 -16 4 0 6 -11 12
-25 14 -14 2 -26 8 -26 13 -1 18 -22 36 -36 31 -10 -4 -13 -1 -8 13 6 19 -13
33 -37 27 -7 -1 -10 -1 -6 1 4 2 4 11 1 19 -3 7 -9 11 -14 8 -5 -3 -9 2 -9 11
0 9 -4 13 -10 10 -5 -3 -10 -1 -10 4 0 6 -5 11 -11 11 -6 0 -8 -7 -5 -16 3 -8
2 -12 -3 -9 -16 9 -9 43 8 37 8 -3 5 4 -7 16 -12 12 -24 33 -28 46 -3 14 -12
27 -19 30 -7 2 -18 21 -25 40 -6 20 -16 36 -20 36 -5 0 -7 7 -4 15 3 8 -6 35
-20 60 -14 25 -23 52 -20 59 3 7 -2 21 -11 30 -9 9 -13 20 -10 26 3 5 -5 43
-19 83 -21 60 -50 184 -69 297 -2 14 -5 -20 -5 -75 -2 -104 5 -144 32 -207 21
-48 14 -49 -13 -2 -23 39 -53 206 -46 259 2 16 7 52 10 80 4 27 9 59 12 70 5
18 4 18 -11 6 -9 -8 -19 -12 -21 -9 -3 2 4 38 15 79 11 41 20 99 21 129 1 53
1 54 11 23 12 -35 38 -45 38 -14 0 10 9 30 20 43 11 14 30 44 42 68 20 36 31
45 80 61 31 10 71 27 90 38 18 10 44 22 58 25 18 5 14 1 -12 -14 -20 -11 -40
-25 -44 -32 -6 -10 -4 -11 7 0 7 6 25 12 39 12 46 0 88 57 78 106 -3 17 -4 17
-20 0 -17 -17 -18 -14 -18 49 0 46 7 82 24 123 47 115 56 224 31 402 -3 19 -2
29 1 23 8 -18 21 -16 44 7 35 35 103 80 120 80 27 0 70 25 88 52 26 36 40 84
30 102 -6 11 -3 18 12 26 11 6 18 15 15 20 -3 6 1 7 10 4 11 -5 14 -2 9 10 -4
12 -2 15 9 10 8 -3 18 0 23 7 5 8 3 10 -7 4 -8 -5 3 9 24 30 39 42 47 74 22
95 -12 10 -15 10 -15 -1 0 -9 -3 -10 -11 -2 -7 7 -8 17 -1 29 8 18 32 183 36
249 2 45 -14 405 -20 443 -3 17 -9 32 -14 32 -11 0 -36 -68 -59 -165 -11 -44
-20 -76 -20 -72 -2 13 -41 -13 -41 -27 0 -8 -6 -16 -14 -19 -8 -3 -20 -16 -26
-28 -10 -17 -9 -20 1 -14 9 6 10 3 6 -10 -9 -21 -19 -69 -43 -188 -18 -95 -36
-126 -60 -106 -8 6 -14 19 -14 28 0 9 -9 27 -20 41 -11 14 -20 33 -20 44 0 15
-3 16 -14 7 -20 -17 -40 42 -25 71 8 15 8 19 0 13 -8 -5 -10 2 -5 22 10 40 63
202 79 238 7 17 25 63 40 103 15 40 32 78 38 85 7 6 13 23 15 37 2 14 11 36
20 49 18 26 20 29 47 80 33 63 219 311 233 311 1 0 -5 -14 -13 -31z m-466
-162 c9 -72 6 -201 -8 -267 -5 -22 -8 10 -8 90 -1 74 -7 155 -17 200 -9 41
-16 93 -15 115 l0 40 19 -53 c11 -29 23 -85 29 -125z m-578 -100 c-10 -9 -11
-8 -5 6 3 10 9 15 12 12 3 -3 0 -11 -7 -18z m8 -55 c0 -15 -7 -43 -14 -62
l-13 -35 -1 61 c-1 33 2 64 5 67 12 12 24 -4 23 -31z m1796 8 c-3 -5 -1 -10 5
-10 6 0 8 -5 4 -11 -4 -8 -9 -7 -15 2 -12 19 -11 29 2 29 5 0 7 -4 4 -10z m12
-72 c-3 -8 -6 -5 -6 6 -1 11 2 17 5 13 3 -3 4 -12 1 -19z m53 -53 c0 -5 -5 -3
-10 5 -5 8 -10 20 -10 25 0 6 5 3 10 -5 5 -8 10 -19 10 -25z m20 -50 c0 -5 -5
-3 -10 5 -5 8 -10 20 -10 25 0 6 5 3 10 -5 5 -8 10 -19 10 -25z m-1374 1 c9
-37 -76 -166 -109 -166 -24 0 -44 -12 -143 -83 -64 -46 -81 -49 -22 -4 66 51
92 78 121 129 29 50 119 148 136 148 6 0 13 -11 17 -24z m-419 -13 c-9 -9 -20
-13 -24 -9 -4 4 -1 11 7 16 25 16 35 11 17 -7z m520 -25 c-3 -7 -5 -2 -5 12 0
14 2 19 5 13 2 -7 2 -19 0 -25z m-71 -23 c-4 -14 -2 -25 3 -25 6 0 8 -6 5 -14
-3 -8 2 -16 13 -19 15 -4 14 -5 -4 -6 -12 0 -25 4 -28 9 -4 6 -10 8 -15 5 -5
-3 -1 13 7 35 18 45 29 53 19 15z m1239 -30 c-33 -44 -42 -79 -17 -71 16 6 16
5 0 -7 -10 -8 -15 -17 -11 -20 3 -4 1 -7 -6 -7 -6 0 -11 7 -9 16 2 10 -3 19
-9 21 -7 3 -13 0 -13 -6 0 -6 -8 -11 -17 -11 -13 0 -10 5 11 19 29 19 85 94
87 115 0 6 3 5 6 -2 3 -7 -7 -28 -22 -47z m-1155 10 c0 -8 -4 -15 -10 -15 -5
0 -10 7 -10 15 0 8 5 15 10 15 6 0 10 -7 10 -15z m1275 -152 c-3 -13 -10 -23
-16 -23 -8 0 -8 4 0 14 6 8 11 18 10 22 -1 5 0 38 2 74 l3 65 3 -65 c2 -35 1
-75 -2 -87z m-561 96 c-3 -5 -2 -8 3 -7 17 5 54 -24 49 -38 -3 -8 -1 -14 4
-14 6 0 10 5 10 10 0 7 8 7 22 -1 20 -11 19 -13 -28 -30 -88 -34 -84 -34 -82
5 1 20 5 37 10 37 4 1 12 2 17 3 5 0 12 4 16 8 4 3 -1 5 -12 4 -20 -4 -33 10
-33 38 0 15 3 16 15 6 8 -7 12 -16 9 -21z m-824 -9 c5 0 15 -10 21 -22 12 -22
12 -22 -14 -5 -15 9 -34 17 -43 17 -26 0 -2 -22 58 -55 29 -15 55 -29 57 -31
2 -2 -13 -56 -36 -124 -3 -10 -11 -3 -24 22 -31 60 -57 71 -146 66 l-77 -5 35
30 c71 61 101 91 116 113 13 21 17 22 30 9 8 -8 18 -15 23 -15z m120 9 c0 -11
-12 -11 -35 -3 -12 5 -14 9 -4 14 14 9 39 2 39 -11z m-17 -50 c-7 -25 -16 -30
-33 -18 -10 5 -11 9 -3 9 7 0 10 6 7 13 -2 7 3 13 15 14 14 1 17 -3 14 -18z
m1177 7 c0 -2 -8 -10 -17 -17 -16 -13 -17 -12 -4 4 13 16 21 21 21 13z m50
-48 c10 -6 7 -7 -10 -2 -14 3 -32 11 -40 16 -10 6 -7 7 10 2 14 -3 32 -11 40
-16z m-550 -127 c-6 -36 -18 -79 -26 -96 l-14 -30 5 40 c2 22 6 49 8 60 3 11
8 43 12 70 5 28 9 53 11 58 1 4 3 15 4 25 2 9 5 0 7 -22 3 -21 -1 -68 -7 -105z
m-1100 44 c0 -12 -19 -12 -23 0 -4 9 -1 12 9 8 7 -3 14 -7 14 -8z m1037 -57
c-3 -8 -6 -5 -6 6 -1 11 2 17 5 13 3 -3 4 -12 1 -19z m2522 -136 c-13 -33 -69
-132 -75 -132 -3 0 -1 8 4 18 5 9 7 23 4 31 -2 8 0 11 6 7 5 -3 13 1 16 10 4
10 2 13 -6 8 -7 -5 -9 -2 -6 8 4 8 2 21 -3 29 -6 10 -9 7 -9 -12 0 -30 -45
-69 -53 -46 -2 6 -15 -6 -30 -28 -52 -78 -72 -97 -98 -90 -14 3 -44 0 -67 -8
l-41 -14 14 27 c8 15 12 30 9 33 -6 6 214 142 280 173 58 27 69 24 55 -14z
m-1840 -272 c0 -87 -4 -117 -23 -173 -39 -110 -136 -256 -256 -387 -40 -44
-22 -14 51 81 59 76 147 242 181 339 13 36 21 96 26 175 7 142 20 121 21 -35z
m1580 33 c-32 -42 -52 -62 -60 -57 -5 3 -6 -1 -3 -9 3 -8 -3 -20 -13 -28 -16
-12 -17 -12 -6 1 8 10 9 21 3 30 -8 12 -10 12 -10 -3 0 -10 -4 -15 -10 -12 -5
3 -10 22 -10 40 0 37 5 39 75 48 17 2 34 5 39 6 5 0 2 -7 -5 -16z m-2678 -216
c-10 -9 -11 -8 -5 6 3 10 9 15 12 12 3 -3 0 -11 -7 -18z m499 -56 c-5 -11 -15
-23 -21 -27 -6 -3 -3 5 6 20 20 30 30 35 15 7z m900 -56 c0 -8 -7 -15 -15 -15
-16 0 -20 12 -8 23 11 12 23 8 23 -8z m547 -243 c24 -49 27 -61 14 -58 -32 10
-134 26 -138 22 -7 -7 71 -33 147 -50 41 -10 92 -22 113 -27 21 -6 47 -7 57
-4 11 4 20 2 20 -3 0 -15 -78 -82 -95 -82 -9 0 -32 -11 -53 -24 -20 -14 -73
-36 -117 -51 -99 -31 -147 -56 -141 -72 3 -7 0 -11 -7 -9 -7 1 -9 1 -4 -1 4
-3 4 -9 1 -15 -4 -5 3 -5 16 2 12 6 24 9 28 6 3 -3 0 -6 -8 -6 -10 0 -10 -3 0
-15 7 -8 17 -12 23 -8 5 3 7 1 4 -5 -8 -12 -47 -4 -47 9 0 5 -3 8 -7 8 -23 -4
-35 4 -53 34 -24 39 -26 108 -6 224 13 70 23 94 65 157 28 40 67 88 88 105
l37 31 17 -53 c9 -28 30 -80 46 -115z m-2450 136 c0 -7 -12 -14 -26 -15 l-26
-1 25 14 c14 7 25 13 26 14 0 0 1 -6 1 -12z m2867 -3 c-4 -8 -16 -15 -28 -15
-20 1 -20 1 4 15 31 18 30 18 24 0z m-2915 -85 c12 -22 21 -46 20 -53 0 -7 -5
-1 -10 12 -5 13 -18 36 -29 51 -21 30 -26 45 -11 36 5 -3 18 -24 30 -46z
m2842 -17 c-48 -68 -88 -113 -101 -113 -14 0 -13 37 1 46 6 3 26 30 45 59 30
48 41 56 87 64 5 0 -10 -25 -32 -56z m-2961 27 c-8 -5 -28 -9 -45 -9 -30 2
-30 2 5 9 51 11 57 11 40 0z m169 -24 c-3 -3 -11 5 -18 17 -13 21 -12 21 5 5
10 -10 16 -20 13 -22z m2911 20 c0 -2 -8 -10 -17 -17 -16 -13 -17 -12 -4 4 13
16 21 21 21 13z m-3182 -13 c-10 -2 -26 -2 -35 0 -10 3 -2 5 17 5 19 0 27 -2
18 -5z m-208 -24 c19 -4 92 -11 162 -15 l128 -7 4 -31 c17 -111 26 -156 40
-195 23 -59 13 -77 -11 -22 l-19 44 -22 -41 c-22 -43 -36 -70 -52 -101 -6 -14
-5 -23 5 -31 18 -15 19 -42 3 -58 -9 -9 -9 -12 -1 -12 7 0 15 5 18 10 4 6 25
22 48 37 23 14 52 37 65 52 l23 26 -17 -32 c-10 -18 -21 -33 -24 -33 -3 0 -26
-18 -50 -40 -50 -45 -51 -45 -88 -26 -47 24 -61 49 -72 126 -21 148 -46 187
-170 261 -76 45 -133 93 -123 102 7 8 101 -1 153 -14z m680 -49 c0 -40 -36
-133 -60 -155 -18 -17 -19 -27 -14 -124 3 -58 6 -114 6 -125 -2 -39 -56 -77
-160 -110 -60 -20 -76 -43 -69 -95 3 -28 -1 -43 -19 -66 -13 -17 -24 -37 -24
-45 0 -8 -7 -1 -16 15 -16 31 -14 48 21 148 14 38 11 72 -6 62 -11 -8 -23 61
-13 82 6 14 9 11 13 -15 6 -33 6 -33 77 75 39 59 90 153 114 208 45 106 58
128 70 120 4 -2 20 9 35 25 36 38 45 38 45 0z m-839 -3 c-13 -13 -26 -3 -16
12 3 6 11 8 17 5 6 -4 6 -10 -1 -17z m27 -19 c-2 -7 3 -12 10 -10 8 1 11 -2 7
-8 -5 -8 -11 -8 -21 1 -7 6 -11 15 -8 20 8 13 14 11 12 -3z m3142 -8 c0 -5 -2
-10 -4 -10 -3 0 -8 5 -11 10 -3 6 -1 10 4 10 6 0 11 -4 11 -10z m-3025 -58
c-1 -1 -24 6 -51 17 -43 16 -46 19 -24 23 21 3 83 -30 75 -40z m1340 8 c12 -5
14 -9 6 -9 -12 -1 -11 -4 1 -18 9 -10 20 -28 26 -39 11 -21 11 -21 -30 -7 -23
8 -54 23 -69 34 -33 23 -43 24 -60 3 -10 -12 -10 -20 -1 -35 10 -15 9 -19 -1
-19 -33 0 -47 43 -27 81 9 16 21 19 73 18 34 0 71 -4 82 -9z m-1260 -50 c10
-11 16 -20 13 -20 -3 0 -13 9 -23 20 -10 11 -16 20 -13 20 3 0 13 -9 23 -20z
m3015 -64 c0 -18 -111 -136 -128 -136 -21 0 -12 14 21 35 18 11 46 41 62 67
31 49 45 59 45 34z m-310 -110 c0 -3 -4 -8 -10 -11 -5 -3 -10 -1 -10 4 0 6 5
11 10 11 6 0 10 -2 10 -4z m-1690 -87 c0 -16 34 -53 105 -114 l30 -26 -30 15
c-16 9 -37 21 -46 28 -29 24 -79 101 -79 122 0 17 2 18 10 6 5 -8 10 -22 10
-31z m1750 10 c-11 -8 -6 -9 20 -5 19 3 42 1 50 -5 12 -8 11 -9 -5 -5 -11 3
-26 2 -34 -3 -8 -5 -26 -5 -43 1 l-29 10 23 13 c26 13 40 9 18 -6z m-1159 -56
c12 -15 12 -16 -6 -10 -20 7 -20 7 -1 -8 16 -12 16 -15 4 -15 -8 0 -23 9 -33
20 -17 18 -17 20 -2 14 10 -3 17 -1 17 5 0 15 5 14 21 -6z m-2422 -109 c36
-24 93 -63 127 -87 33 -23 69 -47 80 -54 21 -13 -84 28 -181 72 -60 26 -118
74 -157 128 l-21 29 43 -22 c23 -12 72 -41 109 -66z m2032 58 c-7 -2 -18 1
-23 6 -8 8 -4 9 13 5 13 -4 18 -8 10 -11z m359 3 c7 -8 8 -15 2 -15 -5 0 -15
7 -22 15 -7 8 -8 15 -2 15 5 0 15 -7 22 -15z m-70 -27 c21 -35 26 -53 11 -44
-5 4 -11 0 -13 -6 -3 -8 -10 -3 -18 12 -12 23 -12 24 3 11 21 -17 22 -3 2 23
-15 20 -19 36 -10 36 3 0 14 -15 25 -32z m-1234 -34 c-4 -14 -9 -24 -12 -21
-3 2 -2 17 2 31 3 15 9 25 11 22 3 -3 2 -17 -1 -32z m1195 -19 c8 -16 6 -15
-10 4 -12 13 -21 28 -21 35 0 12 14 -5 31 -39z m-91 -3 c0 -7 -4 -10 -10 -7
-5 3 -10 16 -10 28 0 18 2 19 10 7 5 -8 10 -21 10 -28z m-1289 -72 c-9 -22
-10 -20 -10 21 -1 25 2 49 7 53 11 12 14 -47 3 -74z m1168 15 c0 -26 -2 -27
-9 -10 -5 11 -9 34 -9 50 0 26 2 27 9 10 5 -11 9 -33 9 -50z m49 -25 c1 -23 0
-23 -8 -5 -5 11 -8 34 -8 50 0 29 0 29 8 5 4 -14 8 -36 8 -50z m646 -14 c-3
-15 -8 -25 -11 -23 -2 3 -1 17 3 31 3 15 8 25 11 23 2 -3 1 -17 -3 -31z m503
-303 c-3 -10 -5 -4 -5 12 0 17 2 24 5 18 2 -7 2 -21 0 -30z m-5360 11 c-3 -3
-12 -4 -19 -1 -8 3 -5 6 6 6 11 1 17 -2 13 -5z m5333 -17 c0 -13 5 -28 12 -35
16 -16 -2 -15 -24 2 -11 8 -15 20 -11 34 7 29 23 28 23 -1z m-2969 -35 c-18
-34 -34 -42 -55 -26 -18 13 -18 14 15 28 45 20 52 20 40 -2z m3235 3 c19 -14
19 -14 -1 -16 -11 -1 -27 -2 -35 -1 -19 1 -31 -19 -24 -40 6 -21 -9 -24 -25
-4 -20 24 13 75 50 76 8 0 24 -7 35 -15z m-4477 -152 c17 -53 28 -99 26 -101
-2 -2 -19 1 -37 6 -18 6 -64 14 -103 17 -146 12 -247 28 -233 36 8 4 37 15 64
24 27 9 54 23 60 30 5 7 42 25 82 38 39 14 79 30 89 36 10 6 19 11 20 11 1 0
16 -44 32 -97z m1791 71 c0 -8 -4 -12 -10 -9 -5 3 -10 10 -10 16 0 5 5 9 10 9
6 0 10 -7 10 -16z m-2875 -4 c13 -6 15 -9 5 -9 -8 0 -22 4 -30 9 -18 12 -2 12
25 0z m24 -26 c2 -2 -10 -4 -27 -4 -18 0 -32 5 -32 10 0 9 47 4 59 -6z m5270
-25 c-13 -26 -20 -21 -12 9 3 12 9 19 14 16 5 -3 4 -14 -2 -25z m-5312 5 c-3
-3 -12 -4 -19 -1 -8 3 -5 6 6 6 11 1 17 -2 13 -5z m5878 -220 c-14 -30 -39
-70 -56 -89 -27 -30 -28 -35 -13 -35 17 -1 16 -3 -5 -20 -13 -11 -33 -20 -46
-20 -28 0 -88 -21 -80 -28 3 -3 -7 -14 -22 -24 l-28 -18 43 0 c23 0 58 7 77
14 19 8 35 13 35 12 0 -2 -20 -25 -44 -52 -31 -33 -41 -51 -33 -56 22 -14 -49
-8 -94 7 -58 21 -79 42 -79 79 -1 44 -35 115 -76 157 -35 36 -35 36 -9 32 18
-4 30 -16 40 -39 10 -25 20 -34 38 -34 58 0 284 196 344 298 l28 47 3 -88 c2
-78 0 -95 -23 -143z m122 55 c-2 -25 -12 -57 -21 -70 l-18 -24 9 35 c4 19 7
69 6 110 l-1 75 15 -40 c8 -23 13 -60 10 -86z m-402 3 c-6 -7 -35 18 -35 31 0
5 9 2 20 -8 11 -10 18 -20 15 -23z m-3185 -23 c0 -6 -4 -7 -10 -4 -5 3 -10 11
-10 16 0 6 5 7 10 4 6 -3 10 -11 10 -16z m2925 -49 c3 -6 -1 -7 -9 -4 -18 7
-21 14 -7 14 6 0 13 -4 16 -10z m1211 -73 c94 -49 238 -174 383 -330 85 -92
158 -164 162 -162 7 5 57 -57 51 -63 -1 -1 19 -35 46 -75 57 -84 132 -210 132
-220 0 -18 -132 135 -212 247 -253 349 -429 528 -585 597 -18 8 -33 17 -33 20
0 3 -20 14 -45 23 -25 10 -45 22 -45 26 0 8 66 -20 146 -63z m-3711 -4 c-10
-53 -19 -31 -10 24 5 26 10 40 13 30 2 -11 1 -35 -3 -54z m-2761 8 c-3 -3 -15
6 -27 18 l-22 24 27 -19 c14 -10 24 -21 22 -23z m4173 -112 c133 -121 215
-177 372 -254 83 -41 151 -78 151 -81 0 -10 -115 5 -211 27 -147 34 -333 163
-380 264 -17 36 -26 115 -14 115 2 0 40 -32 82 -71z m-3977 41 c0 -5 -7 -7
-15 -4 -8 4 -15 8 -15 10 0 2 7 4 15 4 8 0 15 -4 15 -10z m5234 -140 c-10
-111 -31 -157 -109 -235 -72 -72 -165 -131 -190 -121 -8 3 -17 1 -20 -4 -8
-14 -136 -12 -191 1 -48 12 -60 29 -16 24 138 -17 151 -17 182 -2 27 14 32 14
37 1 8 -21 19 -18 53 16 17 17 34 30 38 30 4 0 41 35 83 78 85 85 91 99 111
245 10 72 14 83 20 60 5 -15 6 -57 2 -93z m-2686 44 c-3 -27 -4 -26 -9 8 -3
22 -1 34 4 29 5 -5 7 -21 5 -37z m-11 -86 c-3 -7 -5 -2 -5 12 0 14 2 19 5 13
2 -7 2 -19 0 -25z m4274 -215 c13 -16 12 -17 -3 -4 -10 7 -18 15 -18 17 0 8 8
3 21 -13z m-3626 -31 c-3 -3 -11 0 -18 7 -9 10 -8 11 6 5 10 -3 15 -9 12 -12z
m1672 -37 c0 -8 -4 -12 -9 -9 -5 3 -6 10 -3 15 9 13 12 11 12 -6z m-3337 -39
c0 -8 -9 -18 -20 -21 -11 -4 -18 -10 -15 -14 6 -11 -33 -46 -43 -37 -4 4 2 14
13 23 19 15 19 15 -5 8 -14 -4 -41 -14 -60 -22 -67 -27 -549 -81 -528 -59 3 4
30 7 60 7 97 0 80 15 -19 17 -115 3 -139 12 -32 12 132 0 502 53 584 83 53 19
65 20 65 3z m-302 -33 c-10 -2 -26 -2 -35 0 -10 3 -2 5 17 5 19 0 27 -2 18 -5z
m4073 -54 c-14 -41 -14 -52 1 -43 7 4 8 3 4 -4 -11 -18 -26 -14 -26 5 0 21 22
84 28 78 2 -2 -1 -18 -7 -36z m912 0 c5 -4 6 -13 2 -20 -6 -9 -10 -8 -16 7 -4
10 -8 26 -8 34 1 13 1 13 6 0 3 -8 10 -18 16 -21z m-4704 -8 c8 -13 7 -22 -2
-28 -23 -18 -108 -45 -123 -39 -8 3 -12 2 -9 -4 3 -6 4 -10 0 -10 -3 0 -67
-11 -142 -25 -98 -18 -150 -23 -187 -18 -50 7 -48 7 54 19 141 16 215 36 308
83 42 22 80 40 84 40 4 1 12 -8 17 -18z m4732 -51 c10 0 19 -4 19 -10 0 -5 9
-10 19 -10 11 0 23 -9 26 -21 4 -12 22 -38 40 -58 18 -20 34 -45 36 -55 2 -11
8 -18 13 -17 12 4 26 -19 26 -42 0 -10 9 -37 20 -59 25 -53 25 -55 -2 -32 -19
15 -20 16 -9 2 7 -10 10 -18 5 -18 -5 0 8 -12 29 -27 48 -34 41 -41 -13 -13
-87 44 -191 167 -175 207 3 10 3 14 -1 10 -7 -7 -64 136 -63 158 0 6 3 4 6 -2
2 -7 13 -13 24 -13z m-4762 -28 c-9 -26 -21 -32 -117 -62 -141 -42 -142 -43
-142 -33 0 4 45 25 100 47 55 21 114 46 132 57 18 10 34 18 35 18 1 1 -3 -12
-8 -27z m-20 -126 c-4 -41 -11 -141 -15 -223 -4 -81 -9 -142 -11 -135 -7 18
-20 15 -44 -9 -11 -11 -22 -19 -24 -17 -1 1 0 23 4 48 5 35 11 45 29 50 23 5
24 6 25 171 2 123 5 170 16 182 22 28 27 12 20 -67z m-431 67 c-10 -2 -28 -2
-40 0 -13 2 -5 4 17 4 22 1 32 -1 23 -4z m3376 -93 c-6 -6 -33 -16 -62 -22
-29 -7 -52 -16 -52 -21 0 -4 -4 -5 -10 -2 -18 11 -11 25 13 26 18 0 44 7 117
28 2 0 -1 -4 -6 -9z m-339 -59 c-3 -6 -16 -11 -28 -11 -21 0 -21 1 3 13 27 15
36 14 25 -2z m122 3 c-3 -3 -12 -4 -19 -1 -8 3 -5 6 6 6 11 1 17 -2 13 -5z
m38 -4 c-3 -5 -2 -10 4 -10 5 0 13 5 16 10 3 6 11 10 17 10 6 0 1 -9 -11 -19
-26 -23 -59 -18 -40 5 13 16 23 19 14 4z m-40 -21 c5 -5 -3 -9 -24 -9 -20 0
-30 4 -26 10 4 7 -2 9 -19 4 -18 -4 -26 -2 -26 6 0 14 78 6 95 -11z m-295 -40
c33 -8 33 -8 -9 -4 -24 2 -49 9 -55 16 -8 9 -6 10 9 4 11 -4 36 -11 55 -16z
m83 -16 c-7 -2 -19 -2 -25 0 -7 3 -2 5 12 5 14 0 19 -2 13 -5z m-38 -13 c13
-6 15 -9 5 -9 -8 0 -22 4 -30 9 -18 12 -2 12 25 0z m157 -1 c-15 -5 -36 -6
-55 0 -29 8 -27 9 23 9 44 1 50 -1 32 -9z m75 -15 c-3 -3 -12 -4 -19 -1 -8 3
-5 6 6 6 11 1 17 -2 13 -5z m2388 -62 c-3 -3 -11 0 -18 7 -9 10 -8 11 6 5 10
-3 15 -9 12 -12z m-6851 -77 c9 -13 16 -28 16 -32 0 -4 -5 0 -11 10 -6 9 -15
14 -21 11 -7 -5 -8 -2 -3 6 4 7 2 16 -6 21 -8 5 -9 9 -3 9 7 0 19 -11 28 -25z
m6426 -19 c0 -18 48 -68 59 -61 5 3 12 1 16 -4 3 -6 -4 -15 -16 -21 -13 -7
-19 -8 -15 -2 3 6 -2 13 -13 17 -11 3 -22 13 -25 21 -3 8 -9 13 -13 11 -5 -3
-9 11 -11 30 -1 21 2 32 8 28 5 -3 10 -12 10 -19z m163 -38 c-7 -13 12 -9 26
5 11 10 12 9 6 -2 -13 -22 16 -31 78 -25 37 4 57 3 57 -4 0 -6 -24 -14 -54
-17 -41 -5 -67 -2 -108 12 -29 10 -67 18 -84 18 -18 0 -30 4 -28 10 2 5 28 10
58 10 30 0 52 -3 49 -7z m-6499 -58 c20 -28 33 -50 28 -50 -4 0 -17 16 -30 36
-12 19 -27 32 -32 29 -5 -3 -12 0 -16 6 -4 8 -3 9 4 5 16 -10 15 7 0 23 -8 9
-9 12 -1 7 6 -3 27 -29 47 -56z m1266 50 c18 -12 2 -12 -25 0 -13 6 -15 9 -5
9 8 0 22 -4 30 -9z m5064 -21 c-3 -6 0 -15 7 -20 9 -6 10 -9 2 -9 -15 0 -26
17 -18 30 3 6 8 10 11 10 3 0 2 -5 -2 -11z m557 -22 c-9 -9 -81 1 -81 12 0 16
12 18 50 8 23 -6 36 -15 31 -20z m-224 -29 c-3 -7 -5 -2 -5 12 0 14 2 19 5 13
2 -7 2 -19 0 -25z m81 -25 c-4 -21 -71 -44 -110 -36 -26 5 -28 7 -12 16 13 7
19 7 22 -1 5 -15 22 -16 22 -1 0 17 32 38 58 39 17 0 23 -5 20 -17z m-6744
-26 c-7 -19 -20 -22 -29 -7 -3 6 1 10 9 10 10 0 13 6 9 18 -4 13 -3 14 6 6 6
-6 9 -18 5 -27z m-57 -30 c1 -11 1 -18 0 -16 -2 2 -8 11 -15 20 -9 12 -9 16 1
16 7 0 14 -9 14 -20z m-21 -9 c3 -4 -1 -5 -10 -4 -8 1 -18 5 -22 8 -3 4 1 5
10 4 8 -1 18 -5 22 -8z m3208 -268 l17 -35 -21 24 c-11 13 -20 30 -20 39 0 19
3 15 24 -28z m73 -220 c25 -98 31 -159 16 -153 -7 3 -13 17 -13 32 0 18 -3 22
-9 13 -6 -10 -11 -2 -16 25 -4 21 -6 40 -5 42 1 2 -2 7 -8 10 -5 3 -14 35 -21
71 -7 36 -15 76 -18 90 -11 50 60 -75 74 -130z m1408 -70 c3 -5 2 -10 -4 -10
-5 0 -13 5 -16 10 -3 6 -2 10 4 10 5 0 13 -4 16 -10z"/>
<path d="M4114 5455 c-10 -8 -14 -15 -8 -15 6 0 17 7 24 15 16 19 9 19 -16 0z"/>
<path d="M3960 5330 c0 -5 5 -10 11 -10 5 0 7 5 4 10 -3 6 -8 10 -11 10 -2 0
-4 -4 -4 -10z"/>
<path d="M3960 5289 c0 -5 5 -7 10 -4 6 3 10 8 10 11 0 2 -4 4 -10 4 -5 0 -10
-5 -10 -11z"/>
<path d="M3870 5204 c0 -8 5 -12 10 -9 6 4 8 11 5 16 -9 14 -15 11 -15 -7z"/>
<path d="M3790 4880 c0 -5 -1 -13 -2 -17 -13 -54 -14 -81 -3 -76 7 2 11 14 8
26 -4 18 -3 20 7 7 10 -13 11 -12 6 4 -4 10 -2 24 3 30 6 7 4 16 -5 24 -8 7
-14 8 -14 2z"/>
<path d="M3766 4754 c-8 -20 -4 -25 11 -16 7 4 9 13 4 21 -6 10 -10 9 -15 -5z"/>
<path d="M3751 4708 c-1 -20 14 -24 25 -6 4 6 3 8 -4 4 -5 -3 -13 0 -15 6 -3
8 -6 6 -6 -4z"/>
<path d="M4261 4334 c0 -11 3 -14 6 -6 3 7 2 16 -1 19 -3 4 -6 -2 -5 -13z"/>
<path d="M3844 3165 c-4 -8 -4 -22 0 -30 5 -13 2 -14 -15 -4 -17 8 -20 8 -14
-1 4 -7 2 -16 -6 -20 -11 -7 -11 -13 1 -34 7 -14 16 -26 20 -26 17 0 89 -78
95 -103 4 -15 11 -30 16 -33 14 -8 11 -21 -6 -21 -8 0 -21 15 -30 34 -15 32
-35 45 -35 22 0 -5 4 -8 8 -5 4 3 8 -12 9 -32 l1 -37 -14 40 c-8 22 -12 45 -9
53 2 7 0 10 -5 7 -6 -3 -10 1 -10 9 0 9 -4 16 -10 16 -5 0 -10 -5 -10 -11 0
-20 -24 -3 -30 21 -3 13 -13 24 -23 26 -13 2 -15 -1 -7 -16 13 -24 13 -33 -1
-25 -6 4 -10 1 -8 -6 1 -8 1 -45 0 -84 -1 -91 -20 -75 -28 26 -6 69 -7 72 -18
45 -9 -22 -14 -25 -21 -15 -13 21 -25 -47 -18 -101 4 -25 13 -53 22 -62 8 -10
12 -18 8 -18 -3 0 0 -13 9 -30 16 -32 48 -54 60 -42 5 4 5 2 2 -4 -8 -13 14
-24 48 -24 17 0 24 -8 30 -32 l8 -33 6 35 7 35 15 -44 c24 -69 39 -62 22 10
-21 94 -1 92 32 -3 16 -45 30 -77 33 -70 2 7 -4 34 -13 61 -9 27 -17 67 -18
89 0 22 -4 39 -7 37 -4 -2 -7 1 -8 8 0 7 -4 23 -7 37 -12 44 30 -42 70 -145
21 -52 42 -98 46 -100 10 -7 -14 71 -46 147 -50 117 -66 160 -62 164 2 2 32
-65 66 -149 35 -83 68 -156 73 -162 11 -12 -20 74 -68 189 -19 44 -32 81 -30
83 3 4 74 -146 131 -280 44 -102 57 -110 20 -12 -32 87 -31 92 5 28 17 -29 33
-53 35 -53 7 0 -78 169 -151 300 -32 58 -79 147 -104 197 -26 51 -49 91 -51
88 -3 -2 -3 14 -1 36 4 39 -4 52 -14 24z"/>
<path d="M3581 3144 c0 -11 3 -14 6 -6 3 7 2 16 -1 19 -3 4 -6 -2 -5 -13z"/>
<path d="M4037 2813 c15 -27 39 -67 53 -90 14 -23 54 -89 89 -147 36 -58 68
-106 73 -106 12 0 11 2 -20 66 -16 33 -34 70 -40 84 l-12 25 6 -25 c7 -30 -37
34 -110 158 -26 45 -52 82 -57 82 -6 0 3 -21 18 -47z"/>
<path d="M5334 2509 c-3 -6 -1 -16 5 -22 8 -8 11 -5 11 11 0 24 -5 28 -16 11z"/>
<path d="M5338 2333 c7 -3 16 -2 19 1 4 3 -2 6 -13 5 -11 0 -14 -3 -6 -6z"/>
<path d="M5128 2273 c6 -2 18 -2 25 0 6 3 1 5 -13 5 -14 0 -19 -2 -12 -5z"/>
<path d="M5128 2253 c6 -2 18 -2 25 0 6 3 1 5 -13 5 -14 0 -19 -2 -12 -5z"/>
<path d="M3608 1573 c6 -2 18 -2 25 0 6 3 1 5 -13 5 -14 0 -19 -2 -12 -5z"/>
<path d="M4188 1203 c7 -3 16 -2 19 1 4 3 -2 6 -13 5 -11 0 -14 -3 -6 -6z"/>
<path d="M4393 1204 c9 -3 15 -9 13 -13 -3 -4 2 -8 10 -8 24 0 9 22 -17 24
-15 1 -17 0 -6 -3z"/>
<path d="M4457 1204 c-4 -4 -7 -14 -7 -23 0 -11 3 -12 11 -4 6 6 10 16 7 23
-2 6 -7 8 -11 4z"/>
<path d="M6731 4347 c-1 -10 -5 -15 -11 -12 -5 3 -10 -2 -10 -12 0 -16 1 -16
16 -1 9 9 14 22 11 30 -4 9 -6 7 -6 -5z"/>
<path d="M7170 1592 c0 -5 10 -17 22 -28 l21 -19 -18 28 c-18 28 -25 33 -25
19z"/>
<path d="M2253 7073 c15 -2 39 -2 55 0 15 2 2 4 -28 4 -30 0 -43 -2 -27 -4z"/>
<path d="M1965 7045 c-409 -61 -685 -157 -950 -332 -118 -78 -289 -245 -386
-375 -65 -88 -182 -277 -194 -313 -4 -11 13 14 37 55 170 287 348 493 538 619
202 134 476 246 720 295 107 21 346 57 460 69 25 3 21 4 -15 5 -27 0 -122 -10
-210 -23z"/>
<path d="M2323 6293 c-45 -23 -42 -37 3 -18 20 8 38 15 40 15 2 0 4 5 4 10 0
13 -9 12 -47 -7z"/>
<path d="M2431 6137 c-1 -4 12 -60 29 -125 16 -65 33 -140 36 -167 l7 -48 -74
6 c-68 6 -72 5 -49 -8 14 -8 48 -14 77 -15 48 0 52 -2 57 -27 9 -47 25 -193
30 -289 l6 -91 -65 -18 c-36 -9 -65 -21 -65 -26 0 -12 56 -12 98 0 35 10 35
10 34 -74 -1 -28 0 -27 13 10 7 22 14 51 14 66 1 14 7 31 13 37 9 9 10 15 2
20 -7 4 -13 57 -17 127 -7 155 -35 294 -96 480 -27 83 -49 147 -50 142z"/>
<path d="M401 5944 c-12 -31 -20 -58 -18 -61 2 -2 14 22 25 54 12 31 20 59 18
61 -2 2 -14 -22 -25 -54z"/>
<path d="M361 5824 c0 -11 3 -14 6 -6 3 7 2 16 -1 19 -3 4 -6 -2 -5 -13z"/>
<path d="M3891 5788 c-1 -46 -10 -70 -23 -62 -6 4 -5 10 3 15 11 6 11 11 1 21
-9 9 -12 8 -13 -7 0 -19 -1 -19 -9 0 -5 11 -9 14 -9 7 -1 -7 6 -24 16 -38 12
-19 18 -22 25 -12 6 11 10 11 17 0 5 -8 6 8 4 40 -6 67 -11 84 -12 36z"/>
<path d="M351 5784 c0 -11 3 -14 6 -6 3 7 2 16 -1 19 -3 4 -6 -2 -5 -13z"/>
<path d="M341 5744 c0 -11 3 -14 6 -6 3 7 2 16 -1 19 -3 4 -6 -2 -5 -13z"/>
<path d="M331 5694 c0 -11 3 -14 6 -6 3 7 2 16 -1 19 -3 4 -6 -2 -5 -13z"/>
<path d="M3960 5680 c0 -11 5 -20 10 -20 6 0 10 9 10 20 0 11 -4 20 -10 20 -5
0 -10 -9 -10 -20z"/>
<path d="M3890 5670 c6 -11 12 -20 14 -20 2 0 2 9 -1 20 -3 11 -9 20 -15 20
-5 0 -4 -9 2 -20z"/>
<path d="M3467 5649 c4 -13 8 -18 11 -10 2 7 -1 18 -6 23 -8 8 -9 4 -5 -13z"/>
<path d="M322 5640 c0 -14 2 -19 5 -12 2 6 2 18 0 25 -3 6 -5 1 -5 -13z"/>
<path d="M4180 5618 c0 -19 2 -20 10 -8 8 12 10 12 10 1 0 -8 2 -12 5 -9 8 7
-5 38 -16 38 -5 0 -9 -10 -9 -22z"/>
<path d="M312 5575 c0 -16 2 -22 5 -12 2 9 2 23 0 30 -3 6 -5 -1 -5 -18z"/>
<path d="M3461 5584 c0 -11 3 -14 6 -6 3 7 2 16 -1 19 -3 4 -6 -2 -5 -13z"/>
<path d="M3480 5559 c0 -5 5 -7 10 -4 6 3 10 8 10 11 0 2 -4 4 -10 4 -5 0 -10
-5 -10 -11z"/>
<path d="M60 4918 c63 -19 120 -59 120 -84 0 -7 8 -19 18 -26 9 -7 40 -60 69
-118 68 -139 97 -171 193 -219 143 -72 256 -92 395 -71 44 6 89 12 100 13 27
3 33 37 7 44 -11 2 -25 16 -31 30 -6 13 -24 41 -40 61 -16 20 -40 57 -53 81
-14 24 -35 49 -49 56 -46 25 -224 103 -264 115 -22 7 -62 24 -88 37 -27 13
-89 33 -139 43 -50 11 -97 25 -104 31 -8 6 -20 9 -27 6 -8 -3 -40 1 -73 9 -87
20 -109 15 -34 -8z m391 -173 c41 -8 103 -16 139 -19 69 -5 198 -47 212 -68 5
-7 16 -26 25 -43 8 -16 30 -48 48 -70 29 -37 55 -78 55 -88 0 -8 -167 -7 -262
2 -87 8 -103 13 -153 46 -67 45 -115 101 -115 135 0 14 -11 46 -25 73 -29 54
-31 54 76 32z m384 -325 c7 -12 -134 -12 -180 0 -20 5 3 8 72 9 58 0 104 -3
108 -9z"/>
<path d="M2175 4734 c-11 -3 -47 -9 -80 -16 -53 -9 -175 -45 -183 -53 -6 -5
242 -4 291 1 26 3 45 9 42 14 -8 14 60 -6 90 -26 16 -10 26 -13 22 -6 -12 19
4 14 22 -6 9 -11 27 -25 41 -32 19 -10 16 -3 -19 38 -30 37 -51 52 -69 53 -24
2 -25 2 -4 6 12 2 35 11 50 19 25 13 18 14 -78 13 -58 -1 -114 -3 -125 -5z
m25 -54 c-34 -11 -60 -11 -35 0 11 5 29 8 40 8 16 0 15 -2 -5 -8z m-73 -6 c-3
-3 -12 -4 -19 -1 -8 3 -5 6 6 6 11 1 17 -2 13 -5z"/>
<path d="M2303 4600 c-32 -13 -560 -128 -713 -156 -136 -24 -172 -27 -287 -25
-71 1 -82 -13 -23 -29 48 -13 53 -38 10 -47 -46 -9 -44 -19 2 -14 34 3 44 -1
59 -20 25 -32 24 -39 -8 -40 -16 -1 -39 -5 -53 -9 -16 -6 -3 -7 36 -3 56 5 63
3 78 -18 16 -24 16 -24 -24 -30 -58 -8 -61 -19 -3 -12 38 4 56 1 76 -12 31
-20 34 -32 10 -38 -10 -2 -5 -3 10 -1 20 3 60 -12 127 -46 120 -60 186 -78
310 -86 76 -5 103 -3 134 10 21 9 46 16 55 16 21 0 109 42 174 83 60 39 48 60
-15 24 -39 -24 -174 -67 -206 -67 -7 0 -10 5 -7 10 3 6 16 10 28 10 21 0 175
55 187 66 2 3 -2 9 -9 13 -7 5 -11 13 -7 19 15 24 199 112 235 112 11 0 9 -5
-5 -21 -19 -22 -19 -22 1 -12 28 14 71 1 67 -20 -4 -21 12 -22 32 -1 31 31 25
45 -83 175 -31 37 -32 41 -10 30 14 -7 6 3 -20 27 l-44 39 27 7 c16 4 49 4 75
1 l46 -5 -30 15 c-16 8 -55 15 -85 15 -40 1 -50 4 -35 10 18 8 17 9 -6 9 -15
1 -29 8 -33 16 -6 16 -39 19 -73 5z m-328 -205 c-61 -18 -77 -51 -72 -155 2
-61 9 -97 25 -128 l21 -43 -32 6 c-18 3 -58 15 -89 27 -49 17 -59 25 -69 55
-6 20 -20 44 -31 55 -15 15 -17 22 -8 28 8 5 10 18 6 35 -5 19 -3 31 6 37 10
8 10 11 1 15 -27 10 -11 23 27 23 22 0 40 5 40 10 0 6 11 10 24 10 14 0 28 5
31 10 4 6 -5 10 -19 10 -14 0 -26 4 -26 9 0 4 10 7 23 6 12 -1 49 1 82 4 81 9
113 1 60 -14z m-305 -67 c0 -58 16 -123 41 -170 9 -17 8 -17 -28 -1 -88 41
-152 85 -208 144 -40 43 -55 64 -45 66 29 6 165 20 203 22 l37 1 0 -62z m-270
32 c0 -5 -4 -10 -10 -10 -5 0 -10 5 -10 10 0 6 5 10 10 10 6 0 10 -4 10 -10z
m41 -63 c84 -110 320 -224 507 -244 68 -8 59 -17 -15 -14 -75 2 -237 52 -335
103 -74 38 -197 139 -219 179 -8 16 -6 19 9 19 11 0 34 -19 53 -43z"/>
<path d="M10 4590 c8 -5 56 -19 107 -32 91 -21 93 -22 108 -60 8 -21 15 -48
15 -61 0 -12 -54 -295 -120 -629 -66 -333 -119 -619 -119 -635 1 -32 12 18
139 667 50 256 93 470 95 477 3 10 12 9 37 -1 67 -27 81 -26 27 3 l-56 30 9
48 c8 40 6 57 -10 98 l-20 50 -93 27 c-100 28 -146 35 -119 18z"/>
<path d="M3487 4554 c-3 -3 -3 -13 0 -21 4 -9 -1 -21 -11 -29 -17 -12 -17 -14
4 -44 12 -16 25 -28 30 -25 4 3 13 -8 20 -24 13 -32 43 -53 33 -23 -5 14 -4
15 8 4 8 -7 15 -25 16 -40 2 -15 7 -56 12 -92 9 -61 9 -60 6 35 -4 113 -23
183 -44 162 -11 -10 -12 -7 -6 12 6 20 4 23 -9 18 -14 -6 -16 -3 -11 13 5 15
3 18 -9 14 -11 -4 -16 -1 -16 10 0 9 -5 16 -11 16 -5 0 -7 5 -4 10 7 11 2 14
-8 4z"/>
<path d="M3470 4435 c0 -3 14 -31 31 -62 16 -32 27 -47 23 -33 -12 46 -54 119
-54 95z"/>
<path d="M331 4185 c-12 -37 -21 -72 -20 -79 0 -6 11 23 24 64 13 41 22 76 20
78 -2 2 -13 -26 -24 -63z"/>
<path d="M2433 4205 c-18 -8 -33 -17 -33 -20 0 -3 9 -1 20 5 11 6 24 9 28 6 4
-2 18 2 32 10 22 12 23 13 5 13 -11 0 -35 -6 -52 -14z"/>
<path d="M6208 4213 c7 -3 16 -2 19 1 4 3 -2 6 -13 5 -11 0 -14 -3 -6 -6z"/>
<path d="M302 4070 c0 -14 2 -19 5 -12 2 6 2 18 0 25 -3 6 -5 1 -5 -13z"/>
<path d="M286 3979 c-24 -234 33 -478 158 -674 21 -31 40 -55 43 -52 3 3 -6
21 -20 39 -66 88 -110 190 -149 348 -18 68 -22 116 -22 243 0 86 -1 157 -2
157 -1 0 -4 -28 -8 -61z"/>
<path d="M995 4020 c2 -14 11 -60 20 -102 19 -99 19 -252 -1 -402 -14 -112
-13 -162 2 -100 6 25 8 26 14 9 14 -39 35 127 34 270 0 143 -21 255 -59 324
l-15 26 5 -25z"/>
<path d="M1616 4005 c-9 -26 -7 -32 5 -12 6 10 9 21 6 23 -2 3 -7 -2 -11 -11z"/>
<path d="M1682 3972 c-5 -15 -30 -59 -56 -97 -25 -38 -46 -75 -46 -83 0 -20
31 21 65 86 15 28 28 52 29 52 1 0 1 -44 -1 -97 -3 -118 11 -72 22 75 8 95 4
112 -13 64z"/>
<path d="M1837 3898 c4 -55 47 -197 67 -223 14 -18 14 -16 1 25 -31 93 -53
180 -45 180 4 0 19 -18 34 -39 15 -22 37 -48 48 -58 22 -19 -43 80 -85 130
l-23 28 3 -43z"/>
<path d="M1790 3904 c0 -27 38 -183 50 -203 16 -27 12 4 -16 112 -26 104 -34
125 -34 91z"/>
<path d="M1918 3895 c6 -11 32 -40 58 -65 36 -34 42 -38 26 -15 -26 39 -98
107 -84 80z"/>
<path d="M820 2710 c-24 -8 -23 -8 8 -9 17 -1 32 4 32 9 0 11 -5 11 -40 0z"/>
<path d="M645 2680 c-55 -9 -89 -18 -75 -19 27 -1 202 28 209 35 7 7 -30 3
-134 -16z"/>
<path d="M93 2593 c9 -2 23 -2 30 0 6 3 -1 5 -18 5 -16 0 -22 -2 -12 -5z"/>
<path d="M2080 2450 c0 -5 5 -10 11 -10 5 0 7 5 4 10 -3 6 -8 10 -11 10 -2 0
-4 -4 -4 -10z"/>
<path d="M300 2440 c-21 -7 -21 -8 -5 -9 11 0 27 4 35 9 18 11 5 11 -30 0z"/>
<path d="M2205 2311 c-3 -5 4 -13 16 -16 23 -8 34 -1 24 14 -8 13 -32 14 -40
2z"/>
<path d="M2422 2254 c10 -10 20 -16 22 -13 3 3 -5 11 -17 18 -21 13 -21 12 -5
-5z"/>
<path d="M0 1988 c0 -14 8 -18 33 -17 45 1 80 12 85 27 2 8 -14 11 -57 9 -51
-2 -61 -5 -61 -19z"/>
<path d="M930 1840 c-11 -8 -7 -9 15 -4 37 8 45 14 19 14 -10 0 -26 -5 -34
-10z"/>
<path d="M958 1803 c7 -3 16 -2 19 1 4 3 -2 6 -13 5 -11 0 -14 -3 -6 -6z"/>
<path d="M0 1757 c0 -14 138 -55 295 -87 224 -46 635 -86 960 -93 l110 -2 -75
-24 c-68 -22 -85 -23 -200 -17 -255 13 -839 88 -994 126 -90 23 -104 24 -91
11 28 -27 423 -91 805 -132 402 -42 831 -21 998 48 71 30 76 43 8 20 -40 -14
-44 -14 -39 0 5 13 1 15 -21 11 -46 -9 -23 16 35 37 74 27 41 30 -67 6 -254
-56 -385 -66 -674 -52 -351 18 -697 67 -932 132 -125 34 -118 33 -118 16z"/>
<path d="M1058 1493 c18 -2 45 -2 60 0 15 2 0 4 -33 4 -33 0 -45 -2 -27 -4z"/>
<path d="M1206 712 c-4 -4 -12 -8 -17 -8 -5 -1 -13 -2 -19 -3 -5 0 -10 -6 -10
-12 0 -19 -55 -149 -123 -289 -36 -74 -104 -193 -151 -263 -47 -71 -86 -130
-86 -133 0 -2 68 -4 151 -4 158 0 179 5 179 47 0 15 2 16 11 3 9 -12 10 -12 5
4 -4 11 -4 39 0 63 6 39 8 42 20 26 12 -17 13 -16 7 5 -3 12 0 29 7 37 7 8 10
21 7 29 -3 8 0 20 8 26 24 20 38 111 40 264 1 119 -2 149 -13 154 -8 2 -17 -1
-22 -7 -5 -9 -9 -5 -13 11 -9 31 -9 40 1 35 12 -7 47 9 35 16 -6 4 -13 3 -17
-1z m-26 -67 c0 -7 7 -18 17 -23 11 -7 14 -15 8 -28 -8 -18 -9 -18 -12 3 -2
12 -11 27 -19 33 -16 14 -19 30 -4 30 6 0 10 -7 10 -15z m50 -280 c0 -5 -5 -3
-10 5 -5 8 -10 20 -10 25 0 6 5 3 10 -5 5 -8 10 -19 10 -25z"/>
<path d="M6893 693 c9 -2 23 -2 30 0 6 3 -1 5 -18 5 -16 0 -22 -2 -12 -5z"/>
<path d="M6923 673 c9 -2 23 -2 30 0 6 3 -1 5 -18 5 -16 0 -22 -2 -12 -5z"/>
<path d="M3007 635 c3 -22 7 -42 9 -44 8 -9 2 45 -6 64 -7 14 -8 8 -3 -20z"/>
<path d="M3018 553 c5 -21 7 -23 10 -9 2 10 0 22 -6 28 -6 6 -7 0 -4 -19z"/>
<path d="M3062 520 c0 -14 2 -19 5 -12 2 6 2 18 0 25 -3 6 -5 1 -5 -13z"/>
<path d="M1252 440 c-7 -11 -8 -20 -3 -20 9 0 24 30 18 36 -1 2 -8 -6 -15 -16z"/>
<path d="M2865 10 c3 -5 28 -10 56 -10 27 0 49 5 49 10 0 6 -25 10 -56 10 -34
0 -53 -4 -49 -10z"/>
</g>
</svg>
